<svg width="103" height="84" viewBox="0 0 103 84" fill="none" xmlns="http://www.w3.org/2000/svg">
<path d="M39.934 57.6191C39.934 62.1094 37.595 69.457 32.0588 69.457C26.5225 69.457 24.1835 62.1094 24.1835 57.6191C24.1835 53.1289 26.5225 45.7812 32.0588 45.7812C37.595 45.7812 39.934 53.1289 39.934 57.6191ZM103 46.7695C103 53.6231 102.313 60.8848 99.2448 67.1797C91.1121 83.6367 68.7525 83.25 52.7446 83.25C36.4792 83.25 12.7892 83.8301 4.33458 67.1797C1.20167 60.9492 0 53.6231 0 46.7695C0 37.7676 2.98271 29.2598 8.90521 22.3633C7.78938 18.9688 7.25292 15.4023 7.25292 11.8789C7.25292 7.25977 8.30438 4.93945 10.3858 0.75C20.1065 0.75 26.3294 2.68359 33.7325 8.48438C39.9554 7.00195 46.35 6.33594 52.766 6.33594C58.5598 6.33594 64.3965 6.95898 70.0185 8.3125C77.3144 2.57617 83.5373 0.75 93.1506 0.75C95.2535 4.93945 96.2835 7.25977 96.2835 11.8789C96.2835 15.4023 95.7256 18.9043 94.6312 22.2344C100.532 29.1953 103 37.7676 103 46.7695ZM89.2023 57.6191C89.2023 48.1875 83.4729 39.873 73.4304 39.873C69.3748 39.873 65.4908 40.6035 61.4138 41.1621C58.2165 41.6562 55.0192 41.8496 51.736 41.8496C48.4744 41.8496 45.2771 41.6562 42.0583 41.1621C38.0456 40.6035 34.1188 39.873 30.0417 39.873C19.9992 39.873 14.2698 48.1875 14.2698 57.6191C14.2698 76.4824 31.5223 79.3828 46.5431 79.3828H56.886C71.9713 79.3828 89.2023 76.5039 89.2023 57.6191ZM71.4777 45.7812C65.9415 45.7812 63.6025 53.1289 63.6025 57.6191C63.6025 62.1094 65.9415 69.457 71.4777 69.457C77.014 69.457 79.3529 62.1094 79.3529 57.6191C79.3529 53.1289 77.014 45.7812 71.4777 45.7812Z" fill="#E0E3E7"/>
</svg>
