<svg viewBox="0 0 24 24" fill="currentColor" xmlns="http://www.w3.org/2000/svg"><path d="M20.88 6.72C22.76 5 21.7 2 21.7 2C21.7 2 18.7 2 17.65 3.87C17.05 3.65 16.41 3.51 15.74 3.51H12.77C12.12 3.51 11.5 3.64 10.92 3.85C9.87003 2 6.89003 2 6.89003 2C6.89003 2 5.84003 5 7.71003 6.72C7.71003 6.72 7.22003 8.19 7.22003 9.07C7.22003 11.73 9.11003 13.96 11.61 14.5C11.43 14.88 11.33 15.29 11.33 15.73V18.61C10.64 18.77 8.97003 19.39 8.41003 17.68C7.96003 16.31 5.98003 13.74 3.34003 14C2.53003 14.07 1.93003 14.79 2.01003 15.6C2.09003 16.41 2.80003 17.02 3.61003 16.93C3.97003 16.89 5.12003 17.39 5.67003 18.77C6.01003 19.61 6.32003 20.4 6.95003 20.93C7.62003 21.51 8.50003 21.69 9.36003 21.69C9.86003 21.69 11.21 21.62 11.64 21.54C12.12 22.51 17.19 21.86 17.19 20.25V15.72C17.19 15.28 17.08 14.86 16.91 14.49C19.41 13.95 21.3 11.72 21.3 9.06C21.3 8.14 20.88 6.72 20.88 6.72Z" fill="currentColor" stroke="#221b38" stroke-width="1" stroke-miterlimit="10" stroke-linecap="round" stroke-linejoin="round"/></svg>